HIERARCHY
ROOT pelvis
{
  OFFSET 0 100 0
  CHANNELS 6 Xposition Yposition Zposition Zrotation Xrotation Yrotation
  JOINT pelvis_right_femur
  {
    OFFSET -10.78128 -3.44521 -0.5502486
    CHANNELS 3 Zrotation Xrotation Yrotation
    JOINT right_femur_tibia
    {
      OFFSET -0.8047443 -44.0398 -0.1307829
      CHANNELS 3 Zrotation Xrotation Yrotation
      JOINT right_tibia_foot
      {
        OFFSET 3.006224 -47.83518 -5
        CHANNELS 3 Zrotation Xrotation Yrotation
        End Site
        {
          OFFSET 0 -5 15
        }
      }
    }
  }
  JOINT pelvis_left_femur
  {
    OFFSET 10.78128 -3.44521 -0.5502486
    CHANNELS 3 Zrotation Xrotation Yrotation
    JOINT left_femur_tibia
    {
      OFFSET 0.8047443 -44.0398 -0.1307829
      CHANNELS 3 Zrotation Xrotation Yrotation
      JOINT left_tibia_foot
      {
        OFFSET -4.370144 -48.10324 -4.275266
        CHANNELS 3 Zrotation Xrotation Yrotation
        End Site
        {
          OFFSET 0 -5 15
        }
      }
    }
  }
  JOINT pelvis_spine1
  {
    OFFSET 0 6.468898 -3.129235
    CHANNELS 3 Zrotation Xrotation Yrotation
    JOINT spine1
    {
      OFFSET 0 23.15396 4.99043
      CHANNELS 3 Zrotation Xrotation Yrotation
      JOINT spine2
      {
        OFFSET 0 20.79997 -5.064912
        CHANNELS 3 Zrotation Xrotation Yrotation
        JOINT neck
        {
          OFFSET 0 14.38658 9.616178
          CHANNELS 3 Zrotation Xrotation Yrotation
          End Site
          {
            OFFSET 0 20 0
          }
        }
      }
      JOINT right_manubrium
      {
        OFFSET -5.722621 16.35077 3.967754
        CHANNELS 3 Zrotation Xrotation Yrotation
        JOINT right_clavicle
        {
          OFFSET -13.16364 1.694482 -4.693211
          CHANNELS 3 Zrotation Xrotation Yrotation
          JOINT right_humerus
          {
            OFFSET -28.5034 -0.3100689 -2.792744
            CHANNELS 3 Zrotation Xrotation Yrotation
            JOINT right_radius
            {
              OFFSET -25.15693 0.02248979 -1.271978
              CHANNELS 3 Zrotation Xrotation Yrotation
              End Site
              {
                OFFSET -15 0 0
              }
            }
          }
        }
      }
      JOINT left_manubrium
      {
        OFFSET 5.722621 16.35077 3.967754
        CHANNELS 3 Zrotation Xrotation Yrotation
        JOINT left_clavicle
        {
          OFFSET 13.16364 1.694482 -4.693211
          CHANNELS 3 Zrotation Xrotation Yrotation
          JOINT left_humerus
          {
            OFFSET 29.39168 -1.063119 -2.237045
            CHANNELS 3 Zrotation Xrotation Yrotation
            JOINT left_radius
            {
              OFFSET 24.59957 -0.9528479 0.9047498
              CHANNELS 3 Zrotation Xrotation Yrotation
              End Site
              {
                OFFSET 15 -0 -0
              }
            }
          }
        }
      }
    }
  }
}
MOTION
Frames: 17
Frame Time: 0.0416666666667
1879.377 96.03834 2095.479 7.980625 -1.864015 80.80317 6.30126 -9.281782 5.273366 -0 19.10679 -0 -2.900242 -8.31996 -8.104039 -2.557994 8.210066 -8.181188 -0 57.26623 -0 -8.85367 -8.015748 15.23078 -0.6394248 0.663225 3.23009 1.744289 9.297639 -6.118086 3.063003 23.64182 4.262743 2.130468 -16.81887 7.146181 3.246719 -12.35719 10.50703 88.46164 26.93829 -18.78299 -0 0 7.038078 -15.52011 12.94743 6.310061 4.507135 -19.17416 -3.366254 -85.92252 24.39178 8.384614 0 0 -17.30978 2.5091 11.58557 9.453139
1885.166 97.59575 2096.866 8.121302 -1.800177 79.73124 6.41157 -4.354404 5.365365 -0 18.39018 -0 -4.171766 -10.14326 -6.959054 -2.489857 1.54974 -8.193478 -0 61.58991 -0 -8.861396 -7.433657 15.9488 -0.7259093 1.233442 4.335158 1.668257 9.290749 -5.354362 3.149454 24.02989 3.914952 2.295606 -17.13796 6.756051 3.397215 -13.51071 10.7903 86.85039 26.83551 -16.38941 -0 0 9.021063 -14.48516 11.39514 6.494587 3.99776 -18.35957 -3.014332 -88.48929 25.26499 11.99353 0 0 -14.55129 1.600469 11.94064 10.4774
1890.642 98.87274 2098.104 7.675178 -1.365643 78.7144 5.993807 0.03465325 5.175418 -0 16.16397 -0 -4.791903 -11.39632 -5.619492 -2.242246 -5.990627 -7.657161 -0 60.9561 -0 -8.70669 -7.194016 16.1676 -0.9679699 1.629192 5.593109 1.399963 9.412837 -4.755458 2.886036 23.92218 4.002975 2.618303 -17.34224 6.272306 3.600196 -15.01472 11.20064 85.02258 27.46673 -14.1413 -0 0 11.65379 -14.83298 10.70893 7.431147 3.961683 -18.0792 -2.701089 -90.34084 25.18577 15.39671 0 0 -13.68164 0.9099583 11.45984 11.54195
1895.982 99.57289 2099.215 6.788386 -0.8715224 77.83427 5.377134 3.79652 4.782828 -0 13.33827 -0 -4.769843 -12.41702 -4.119494 -1.452049 -13.57105 -6.496402 -0 55.75934 -0 -8.480983 -6.987666 16.14289 -1.152032 1.837472 6.698923 0.9941106 9.59934 -4.349495 2.369047 23.45561 4.466258 2.969703 -17.5191 5.863738 3.805203 -16.67208 11.64768 82.93719 28.71416 -11.94618 -0 0 14.53496 -16.5957 11.03882 8.968924 4.243635 -18.1784 -2.437038 -91.21236 24.54868 18.11485 0 0 -14.44848 0.4871512 10.4867 12.5733
1901.335 99.56698 2100.221 5.779098 -0.562299 77.08131 4.829759 7.186512 4.352563 -0 10.89377 -0 -4.132119 -13.68902 -2.703602 -0.1060182 -20.21701 -4.901015 -0 47.34745 -0 -8.098736 -6.778055 16.28445 -1.195785 1.860866 7.454753 0.5595485 9.714647 -4.080062 1.848451 22.87877 5.003568 3.140156 -17.66336 5.659945 3.837141 -18.29066 11.96794 80.74856 29.84429 -9.599892 -0 0 17.3716 -19.14433 11.92308 10.84019 4.577464 -18.25504 -2.202325 -91.36627 23.8814 20.00835 0 0 -15.7493 0.1693042 9.433004 13.54674
1906.846 98.90716 2101.136 4.952398 -0.4750568 76.39706 4.365778 10.55014 4.087652 -0 9.660391 -0 -2.848065 -15.26039 -1.616665 1.353705 -25.18394 -3.328885 -0 37.57531 -0 -7.495998 -6.646535 16.81979 -1.171483 1.686501 7.886598 0.180654 9.667443 -3.877499 1.521268 22.36049 5.36148 3.038388 -17.69936 5.681017 3.583824 -19.73269 12.03655 78.77557 30.14441 -7.126213 -0 0 20.06301 -21.68702 12.71177 12.71411 4.753056 -17.96314 -1.990197 -91.30669 23.42693 21.31571 0 0 -16.382 -0.2607711 8.481823 14.47293
1912.689 97.81383 2101.961 4.434435 -0.4470616 75.74425 3.738408 13.88681 4.076224 -0 10.37373 -0 -1.082332 -16.4731 -0.9222128 2.205504 -28.11295 -2.395647 -0 28.41266 -0 -6.768019 -6.685842 17.6031 -1.255961 1.30667 8.157383 -0.1278156 9.455192 -3.701619 1.43121 21.95172 5.520965 2.803932 -17.59256 5.860825 3.142504 -20.82853 11.83074 77.33646 29.59265 -4.875119 -0 0 22.43961 -23.70971 12.99933 14.25016 4.72507 -17.24484 -1.812182 -91.39171 23.14904 22.37434 0 0 -15.76961 -0.8516275 7.662055 15.3288
1919.02 96.63848 2102.693 4.179766 -0.264482 75.15542 2.699508 16.69541 4.274817 -0 13.67752 -0 0.6546833 -16.16026 -0.5694835 1.876666 -28.97981 -2.580426 -0 21.72192 -0 -6.080729 -6.940724 18.26729 -1.614461 0.749021 8.402196 -0.4063001 9.187923 -3.545477 1.516061 21.63344 5.626352 2.709241 -17.43283 6.101612 2.783513 -21.38716 11.4491 76.60356 28.83316 -3.322259 -0 0 24.12852 -25.05757 12.78026 15.193 4.571373 -16.3312 -1.704018 -91.70046 22.93593 23.38402 0 0 -14.11061 -1.439991 7.031045 16.02177
1925.88 95.76845 2103.338 4.13288 0.1596473 74.73758 1.306809 18.22836 4.579162 -0 19.78743 -0 1.786982 -13.37787 -0.5773401 0.3918298 -27.99545 -3.799281 -0 18.73882 -0 -5.492251 -7.395462 18.5055 -2.276629 0.1049754 8.629948 -0.6906704 9.078328 -3.440982 1.683213 21.37029 5.787424 2.898007 -17.37776 6.325259 2.742691 -21.3615 11.08394 76.66259 28.51693 -2.860669 -0 0 24.73648 -25.8131 12.39986 15.48374 4.361039 -15.59307 -1.737246 -92.08071 22.73243 24.33443 0 0 -12.13193 -1.804615 6.68101 16.45807
1933.127 95.47286 2103.916 4.355229 0.6779663 74.63037 0.0007272399 17.96237 4.849483 -0 28.02538 -0 2.210962 -8.462582 -1.052041 -1.559544 -25.54792 -5.28659 -0 19.1928 -0 -4.932121 -8.000325 18.25548 -3.063933 -0.4584049 8.715889 -0.9471142 9.312709 -3.464011 1.833021 21.15953 5.962328 3.19162 -17.46769 6.498852 3.014956 -20.95276 10.91446 77.57442 28.64608 -3.611558 -0 0 24.17468 -26.14048 12.30354 15.31792 4.085571 -15.31395 -1.976791 -92.24854 22.54416 25.00379 0 0 -10.66301 -1.866559 6.580948 16.65329
1940.494 95.79386 2104.459 4.956228 1.018723 74.9265 -0.7486123 15.91559 4.955583 -0 36.80757 -0 2.403337 -3.243333 -2.065266 -3.19395 -22.08984 -6.229939 -0 21.2098 -0 -4.377395 -8.726703 17.70269 -3.681582 -0.7547337 8.495475 -1.086488 9.850094 -3.682478 1.880673 21.05713 6.031987 3.253969 -17.508 6.612846 3.368552 -20.43485 10.96183 79.18729 28.62864 -5.245192 -0 0 22.81262 -26.12308 12.58941 14.99024 3.749168 -15.48343 -2.403084 -91.95399 22.36184 25.00853 0 0 -10.10216 -1.73244 6.515771 16.68294
1947.713 96.58094 2104.976 5.884496 1.055136 75.61211 -0.8721206 12.47618 4.852882 -0 44.37252 -0 2.7764 0.4017726 -3.501906 -4.234252 -17.96343 -6.50624 -0 22.68048 -0 -3.909526 -9.591306 17.08835 -3.953426 -0.7140622 7.898658 -1.056244 10.43553 -4.095832 1.80901 21.12451 5.960632 2.968276 -17.27198 6.665088 3.574016 -19.9113 11.08575 81.07032 28.03622 -7.168927 -0 0 21.201 -25.75081 12.91509 14.65782 3.45916 -15.87971 -2.917053 -91.13997 22.17143 24.0319 0 0 -10.31931 -1.540831 6.317176 16.55013
1954.596 97.60588 2105.456 6.867869 0.8811971 76.58445 -0.6334955 8.02978 4.578451 -0 49.61706 -0 3.192748 1.944004 -5.019677 -4.83659 -13.38217 -6.54138 -0 22.60847 -0 -3.555409 -10.62396 16.51536 -3.926979 -0.4381049 6.987114 -0.8689168 10.84294 -4.661029 1.667465 21.35075 5.82699 2.502493 -16.79103 6.680004 3.569552 -19.34508 11.14858 82.83436 27.0437 -9.01264 -0 0 19.65175 -25.04629 12.96596 14.32394 3.332083 -16.35112 -3.424366 -89.95223 22.05254 22.11106 0 0 -11.08906 -1.354542 6.071955 16.23961
1961.053 98.64834 2105.889 7.583125 0.6468366 77.71523 -0.2926407 2.83055 4.195311 -0 52.26999 -0 3.270535 1.976065 -6.278362 -5.205987 -8.521611 -6.734691 -0 21.10418 -0 -3.2506 -11.83679 15.95374 -3.750194 -0.09189282 5.890808 -0.5559374 11.00476 -5.341299 1.509016 21.65494 5.740749 2.077659 -16.31679 6.704245 3.438197 -18.71129 11.11679 84.32556 26.14073 -10.76453 -0 0 18.1845 -24.11759 12.76579 13.95713 3.389189 -16.89292 -3.881423 -88.61593 22.15354 19.62403 0 0 -12.33496 -1.200869 6.000917 15.83318
1967.059 99.53285 2106.28 7.816506 0.4311492 78.89597 0.03293073 -2.932575 3.759935 -0 52.51654 -0 2.810065 1.286942 -7.126661 -5.436172 -3.550677 -7.24696 -0 18.71335 -0 -2.956324 -13.22685 15.35128 -3.532706 0.2081597 4.744216 -0.1443569 10.9489 -6.102931 1.360266 21.94372 5.779584 1.820025 -16.10147 6.785896 3.305051 -18.0356 11.021 85.53316 25.73514 -12.55021 -0 0 16.73182 -23.09716 12.54175 13.53208 3.586278 -17.53678 -4.276518 -87.32745 22.59274 17.03757 0 0 -14.03587 -1.116263 6.265963 15.48315
1972.638 100.1393 2106.645 7.492001 0.2438087 80.04922 0.3286359 -9.048326 3.318843 -0 50.6211 -0 1.859344 0.3839285 -7.566251 -5.539961 1.355373 -8.082386 -0 15.99997 -0 -2.726735 -14.78546 14.69422 -3.315686 0.4135969 3.666216 0.3351129 10.71453 -6.894124 1.236434 22.14839 5.970362 1.76445 -16.27809 6.961498 3.262687 -17.35967 10.89342 86.49112 26.01202 -14.45468 -0 0 15.27913 -22.06843 12.49934 13.00938 3.879941 -18.27701 -4.596569 -86.2285 23.41667 14.72355 0 0 -16.12215 -1.137748 6.91689 15.32415
1977.846 100.4012 2107.009 6.637461 0.07386083 81.1244 0.6252315 -15.21402 2.917348 -0 46.78974 -0 0.6105554 -0.511124 -7.665189 -5.506055 5.9727 -9.165863 -0 13.45898 -0 -2.689176 -16.4874 14.0036 -3.103937 0.518499 2.765586 0.8393238 10.32657 -7.640038 1.157833 22.22636 6.286408 1.896064 -16.84738 7.241469 3.346764 -16.71588 10.74619 87.24744 26.95097 -16.47026 -0 0 13.89235 -21.03992 12.71374 12.33169 4.255213 -19.0701 -4.808004 -85.41676 24.58852 12.9102 0 0 -18.45354 -1.27616 7.900888 15.41673
